<svg width="120" height="50" viewBox="0 0 120 50" fill="none" xmlns="http://www.w3.org/2000/svg">
<path fill-rule="evenodd" clip-rule="evenodd" d="M97.6641 0H102.514H113.904C117.152 0 119.822 3.0581 119.822 6.7788V20.5912C119.822 24.3119 117.152 27.37 113.904 27.37H102.514H97.6641H65.3616V0H97.6641Z" fill="#C3161C"/>
<path fill-rule="evenodd" clip-rule="evenodd" d="M67.4529 1.93683H90.1003V7.44141H73.593V10.8053H89.2549V15.9531H73.593V19.7248H90.1892V25.3313H67.4529V1.93683ZM111.591 16.3609H117.82C117.864 17.4822 117.864 18.2467 117.864 18.5525C117.864 20.3364 117.642 21.7635 117.153 22.7829C116.619 23.9042 115.64 24.7197 114.127 25.1274C112.614 25.5352 110.034 25.7391 106.296 25.7391C102.381 25.7391 99.6219 25.6371 97.9757 25.4842C96.3294 25.3313 95.0836 24.9745 94.2382 24.4649C93.4818 24.0061 92.9479 23.3945 92.5474 22.681C92.1915 21.9164 91.9245 20.8971 91.8355 19.5719C91.7465 18.5016 91.702 16.5648 91.702 13.8125C91.702 11.1111 91.7465 9.12337 91.8355 7.9511C91.9245 6.72786 92.1025 5.81042 92.3694 5.14784C92.9479 3.66975 94.1047 2.70135 95.84 2.24264C97.5752 1.78392 101.09 1.58005 106.341 1.58005C108.966 1.58005 110.879 1.63102 112.08 1.78392C113.282 1.93683 114.216 2.19167 114.928 2.54845C115.862 3.05813 116.485 3.77169 116.886 4.79106C117.242 5.75946 117.464 7.23754 117.464 9.17434C117.464 9.27628 117.464 9.68402 117.419 10.3466H111.19C111.146 9.58209 111.101 9.0724 111.057 8.81756C111.012 8.56272 110.879 8.35884 110.701 8.15497C110.478 7.90013 109.856 7.74722 108.877 7.64529C107.898 7.54335 106.43 7.49238 104.472 7.49238C102.514 7.49238 101.179 7.54335 100.423 7.64529C99.6664 7.74722 99.1325 7.9511 98.8211 8.20594C98.4651 8.56272 98.1981 9.12337 98.0647 9.93886C97.9312 10.7544 97.8422 12.0286 97.8422 13.8125C97.8422 15.5964 97.8867 16.8196 98.0202 17.5332C98.1537 18.2467 98.3761 18.7564 98.7766 19.1132C99.1325 19.419 99.6664 19.6229 100.467 19.7248C101.224 19.8267 102.603 19.8777 104.516 19.8777C106.919 19.8777 108.476 19.8267 109.277 19.7248C110.078 19.6229 110.612 19.419 110.879 19.1132C111.368 18.7564 111.591 17.839 111.591 16.3609Z" fill="white"/>
<path fill-rule="evenodd" clip-rule="evenodd" d="M54.9944 13.0479C53.2147 13.0479 52.0134 13.2008 51.3459 13.5066C50.901 13.7615 50.5895 14.1692 50.3671 14.7299C50.1891 15.2905 50.1001 16.106 50.1001 17.2273C50.1001 18.2977 50.1891 19.1131 50.3226 19.5719C50.5006 20.0306 50.7675 20.3874 51.2125 20.6422C51.8799 20.999 53.1257 21.2029 54.9055 21.2029C56.9522 21.2029 58.287 20.948 58.8209 20.4893C59.3993 19.9796 59.6663 18.8583 59.6663 17.1254C59.6663 16.0041 59.5773 15.2395 59.3993 14.7299C59.2214 14.2202 58.9099 13.8634 58.4205 13.6595C57.8421 13.2008 56.6852 13.0479 54.9944 13.0479ZM6.40712 13.8124H14.1936C15.6174 13.8124 16.4627 13.7615 16.7742 13.7615C17.0857 13.7105 17.3526 13.6595 17.6196 13.5066C17.931 13.3028 18.1535 12.9969 18.287 12.6402C18.4205 12.2324 18.465 11.6208 18.465 10.8053C18.465 9.98981 18.376 9.37818 18.2425 8.97044C18.109 8.56269 17.842 8.30785 17.4416 8.15494C17.1746 8.00204 16.0623 7.95107 14.1936 7.9001H6.40712V13.8124ZM0.177979 25.3823V1.9368H14.1936C16.9522 1.9368 18.7319 1.98777 19.5328 2.14067C21.535 2.44648 22.9144 3.21101 23.6263 4.38328C24.3382 5.55555 24.6941 7.69623 24.6941 10.7034C24.6941 13.6086 24.3826 15.6473 23.8042 16.8196C23.4038 17.6351 22.8699 18.1957 22.1135 18.6035C21.4016 19.0112 20.4227 19.317 19.1769 19.4699C18.287 19.5719 16.6407 19.6228 14.1936 19.6228H6.40712V25.3313H0.177979V25.3823ZM26.5628 8.76656H31.6352V11.264H31.9466C32.436 10.1937 33.1479 9.48012 33.9933 9.02141C34.8387 8.56269 36.04 8.35882 37.5528 8.35882C39.733 8.35882 41.2458 8.8685 42.1357 9.8369C42.9811 10.8053 43.426 12.5382 43.426 15.0357C43.426 15.1886 43.426 15.5454 43.3815 16.157H38.2647C38.2647 15.1886 38.1758 14.526 37.9978 14.1182C37.6418 13.4047 36.7964 13.0479 35.4171 13.0479C34.1268 13.0479 33.2369 13.4557 32.6585 14.2712C32.3915 14.6789 32.2136 15.1376 32.1246 15.7492C32.0356 16.3099 31.9911 17.2783 31.9911 18.5525V25.4332H26.5628V8.76656ZM54.9499 8.35882C57.3971 8.35882 59.2659 8.46075 60.4672 8.71559C61.6685 8.91947 62.6474 9.32722 63.3148 9.88787C64.0267 10.4995 64.5161 11.264 64.7831 12.2324C65.0501 13.2008 65.1835 14.7299 65.1835 16.7686C65.1835 18.2977 65.139 19.4699 65.0501 20.2345C64.9611 20.999 64.8276 21.7125 64.6496 22.3242C64.1157 23.8532 63.0923 24.8726 61.4905 25.2803C60.1557 25.6371 57.9755 25.79 54.9499 25.79C52.2358 25.79 50.3226 25.6881 49.1657 25.4332C48.0089 25.2294 47.0745 24.7706 46.3626 24.1081C45.6952 23.4964 45.2503 22.6809 45.0278 21.6616C44.8053 20.6422 44.6719 18.9093 44.6719 16.5138C44.6719 15.1376 44.7164 14.1182 44.8053 13.4047C44.8943 12.6911 45.0723 12.0285 45.3393 11.4679C45.8732 10.2446 46.8076 9.42915 48.0979 9.02141C49.4772 8.56269 51.7464 8.35882 54.9499 8.35882Z" fill="#231F20"/>
<path fill-rule="evenodd" clip-rule="evenodd" d="M12.147 38.3282V30.1733H17.0413C18.0202 30.1733 18.6431 30.1733 18.91 30.2243C19.6219 30.3262 20.1114 30.581 20.3338 30.9888C20.6008 31.3965 20.6898 32.1611 20.6898 33.2314C20.6898 34.2508 20.6008 34.9643 20.3783 35.3721C20.2449 35.6269 20.0224 35.8818 19.7999 35.9837C19.533 36.1366 19.2215 36.2385 18.7766 36.2895C18.4651 36.3405 17.8867 36.3405 17.0413 36.3405H14.3272V38.3282H12.147ZM14.3272 34.3017H17.0413C17.5307 34.3017 17.8422 34.3017 17.9312 34.3017C18.0202 34.3017 18.1536 34.2508 18.2426 34.1998C18.3316 34.1488 18.4206 34.0469 18.4651 33.894C18.5096 33.7411 18.5096 33.5372 18.5096 33.2314C18.5096 32.9256 18.4651 32.7217 18.4206 32.5688C18.3761 32.4159 18.2871 32.314 18.1536 32.263C18.0647 32.212 17.6642 32.212 16.9968 32.1611H14.2827V34.3017H14.3272ZM21.3572 32.5688H23.137V33.4353H23.226C23.4039 33.0785 23.6264 32.8237 23.9379 32.6707C24.2493 32.5178 24.6498 32.4159 25.1837 32.4159C25.9401 32.4159 26.474 32.5688 26.7855 32.9256C27.0969 33.2824 27.2304 33.894 27.2304 34.7605C27.2304 34.8114 27.2304 34.9643 27.2304 35.1682H25.4506C25.4506 34.8114 25.4062 34.6075 25.3617 34.4546C25.2282 34.1998 24.9167 34.0469 24.4718 34.0469C24.0268 34.0469 23.7154 34.1998 23.4929 34.4546C23.4039 34.6075 23.3149 34.7605 23.3149 34.9643C23.2704 35.1682 23.2704 35.474 23.2704 35.9327V38.3282H21.3572V32.5688ZM31.2793 32.4159C32.1247 32.4159 32.7921 32.4669 33.1926 32.5178C33.6375 32.6198 33.949 32.7217 34.2159 32.9256C34.4829 33.1295 34.6164 33.3843 34.7499 33.7411C34.8389 34.0979 34.8833 34.6075 34.8833 35.3211C34.8833 35.8818 34.8833 36.2895 34.8389 36.5443C34.7944 36.7992 34.7499 37.054 34.7054 37.2579C34.5274 37.8186 34.1714 38.1244 33.593 38.2773C33.1481 38.3792 32.3917 38.4811 31.3238 38.4811C30.3895 38.4811 29.7221 38.4302 29.2771 38.3792C28.8767 38.2773 28.5652 38.1244 28.2983 37.9205C28.0758 37.7166 27.8978 37.4108 27.8088 37.054C27.7198 36.6973 27.6753 36.0856 27.6753 35.2701C27.6753 34.8114 27.6753 34.4037 27.7198 34.1998C27.7643 33.945 27.8088 33.7411 27.8978 33.5372C28.0758 33.1295 28.4317 32.8237 28.8767 32.6707C29.3661 32.4669 30.167 32.4159 31.2793 32.4159ZM31.2793 34.0469C30.6564 34.0469 30.2115 34.0979 30.0335 34.1998C29.8555 34.3017 29.7666 34.4037 29.6776 34.6075C29.6331 34.8114 29.5886 35.1172 29.5886 35.474C29.5886 35.8308 29.6331 36.1366 29.6776 36.2895C29.7221 36.4424 29.8555 36.5953 29.989 36.6463C30.2115 36.7992 30.6564 36.8502 31.2793 36.8502C31.9912 36.8502 32.4362 36.7482 32.6587 36.5953C32.8366 36.4424 32.9701 36.0347 32.9701 35.423C32.9701 35.0153 32.9256 34.7605 32.8811 34.6075C32.8366 34.4546 32.7031 34.3017 32.5252 34.1998C32.3027 34.0979 31.8578 34.0469 31.2793 34.0469ZM30.2115 31.2946L32.4362 28.7971L33.415 30.2752L30.7454 32.0591L30.2115 31.2946ZM35.1503 34.5566H39.6442V36.2385H35.1503V34.5566ZM40.1781 38.3282V30.1733H45.4284C46.6742 30.1733 47.3861 30.1733 47.6531 30.2243C47.8756 30.2752 48.1425 30.3262 48.365 30.4791C48.632 30.683 48.8099 30.9378 48.9434 31.2436C49.0324 31.6004 49.0769 32.1101 49.0769 32.8237C49.0769 33.4353 49.0324 33.843 48.9879 34.1488C48.9434 34.4037 48.8099 34.6585 48.632 34.8114C48.454 35.0153 48.1425 35.1172 47.7866 35.1682C48.2315 35.2192 48.5875 35.3721 48.7654 35.6269C48.8989 35.7798 48.9434 35.9837 48.9879 36.1876C49.0324 36.3914 49.0324 36.8502 49.0324 37.5637V38.3282H46.8967V37.8695C46.8967 37.4108 46.8967 37.105 46.8522 36.9011C46.8077 36.6973 46.7632 36.5443 46.6742 36.4424C46.5852 36.3405 46.4963 36.2895 46.3183 36.2385C46.1848 36.1876 45.8733 36.1876 45.4284 36.1876H42.3583V38.2773H40.1781V38.3282ZM42.3583 34.1998H45.4284C45.9623 34.1998 46.2738 34.1998 46.3628 34.1488C46.4518 34.1488 46.5407 34.0979 46.6297 34.0469C46.7187 33.9959 46.8077 33.894 46.8077 33.7411C46.8522 33.5882 46.8522 33.3843 46.8522 33.1295C46.8522 32.8746 46.8522 32.6707 46.8077 32.5178C46.7632 32.3649 46.6742 32.314 46.5852 32.212C46.4963 32.1611 46.4073 32.1611 46.3183 32.1611C46.2293 32.1611 45.9178 32.1611 45.4284 32.1611H42.3583V34.1998ZM54.5496 36.4934H56.4184C56.3739 37.105 56.1959 37.5637 55.929 37.8695C55.7065 38.1244 55.3505 38.2773 54.9056 38.3792C54.4607 38.4811 53.7933 38.5321 52.9034 38.5321C52.147 38.5321 51.613 38.4811 51.2126 38.4302C50.8122 38.3282 50.5007 38.2263 50.2782 38.0224C50.0558 37.8186 49.8778 37.5127 49.7888 37.156C49.6998 36.7992 49.6553 36.2385 49.6553 35.525C49.6553 34.9643 49.6553 34.5566 49.6998 34.3017C49.7443 34.0469 49.7888 33.7921 49.8778 33.5372C50.1003 33.0785 50.4562 32.7727 50.9901 32.6198C51.4351 32.5178 52.147 32.4159 53.0813 32.4159C53.9267 32.4159 54.5051 32.4669 54.8611 32.5178C55.484 32.6198 55.8845 32.9256 56.1069 33.2824C56.3294 33.6901 56.4629 34.3527 56.4629 35.3211C56.4629 35.423 56.4629 35.6269 56.4629 35.9327H51.5241C51.5241 36.2385 51.5241 36.4424 51.5686 36.5443C51.613 36.6463 51.6575 36.7992 51.7465 36.8502C51.9245 37.0031 52.3694 37.105 53.0368 37.105C53.4818 37.105 53.7932 37.105 53.9712 37.054C54.1937 37.0031 54.3272 36.9521 54.4162 36.8502C54.4607 36.7992 54.5051 36.6463 54.5496 36.4934ZM54.5496 34.7095C54.5496 34.5056 54.5496 34.3017 54.5051 34.2508C54.5051 34.1488 54.4607 34.0979 54.3717 33.9959C54.1937 33.7921 53.7488 33.6901 53.0368 33.6901C52.4139 33.6901 51.969 33.7411 51.791 33.894C51.5686 34.0469 51.4796 34.3017 51.4796 34.7095H54.5496ZM57.1748 32.5688H59.088V38.3792H57.1748V32.5688ZM57.1748 30.1733H59.088V31.8043H57.1748V30.1733ZM60.5118 31.1927H62.4251V32.5178H65.4062V34.0469H62.4251V35.7289C62.4251 36.1876 62.4696 36.4934 62.514 36.5953C62.603 36.7992 62.8255 36.9011 63.1815 36.9011C63.5374 36.9011 63.7599 36.7992 63.8489 36.5953C63.8934 36.5443 63.8934 36.4424 63.8934 36.3914C63.8934 36.3405 63.8934 36.1366 63.8934 35.8308H65.6286C65.6286 36.3914 65.5841 36.7992 65.5396 37.054C65.4951 37.3089 65.4062 37.5127 65.2282 37.7676C65.0502 38.0224 64.7832 38.2263 64.4273 38.3282C64.1158 38.4302 63.5819 38.4811 62.959 38.4811C62.3361 38.4811 61.8911 38.4302 61.6242 38.3792C61.3127 38.3282 61.0902 38.1753 60.9123 37.9715C60.7788 37.8186 60.6898 37.6657 60.6008 37.4618C60.5563 37.2579 60.5118 37.054 60.5118 36.6973C60.5118 36.5953 60.5118 36.2895 60.5118 35.7798V34.0979H59.533V32.5688H60.5118V31.1927ZM69.6776 32.4159C70.5229 32.4159 71.1904 32.4669 71.5908 32.5178C72.0357 32.6198 72.3472 32.7217 72.6142 32.9256C72.8811 33.1295 73.0146 33.3843 73.1481 33.7411C73.2371 34.0979 73.2816 34.6075 73.2816 35.3211C73.2816 35.8818 73.2816 36.2895 73.2371 36.5443C73.1926 36.7992 73.1481 37.054 73.1036 37.2579C72.9256 37.8186 72.5697 38.1244 71.9912 38.2773C71.5463 38.3792 70.7899 38.4811 69.7221 38.4811C68.7877 38.4811 68.1203 38.4302 67.6753 38.3792C67.2749 38.2773 66.9634 38.1244 66.6965 37.9205C66.474 37.7166 66.296 37.4108 66.207 37.054C66.1181 36.6973 66.0736 36.0856 66.0736 35.2701C66.0736 34.8114 66.0736 34.4037 66.1181 34.1998C66.1625 33.945 66.207 33.7411 66.296 33.5372C66.474 33.1295 66.83 32.8237 67.2749 32.6707C67.7643 32.4669 68.5207 32.4159 69.6776 32.4159ZM69.6776 34.0469C69.0547 34.0469 68.6097 34.0979 68.4317 34.1998C68.2538 34.3017 68.1648 34.4037 68.0758 34.6075C68.0313 34.8114 67.9868 35.1172 67.9868 35.474C67.9868 35.8308 68.0313 36.1366 68.0758 36.2895C68.1203 36.4424 68.2538 36.5953 68.3872 36.6463C68.6097 36.7992 69.0547 36.8502 69.6776 36.8502C70.3895 36.8502 70.8344 36.7482 71.0569 36.5953C71.2348 36.4424 71.3683 36.0347 71.3683 35.423C71.3683 35.0153 71.3238 34.7605 71.2793 34.6075C71.2348 34.4546 71.1014 34.3017 70.9234 34.1998C70.7009 34.0979 70.256 34.0469 69.6776 34.0469ZM73.949 32.5688H75.7287V33.4353H75.8177C75.9957 33.0785 76.2182 32.8237 76.5296 32.6707C76.8411 32.5178 77.2415 32.4159 77.7755 32.4159C78.5318 32.4159 79.0658 32.5688 79.3772 32.9256C79.6887 33.2824 79.8222 33.894 79.8222 34.7605C79.8222 34.8114 79.8222 34.9643 79.8222 35.1682H78.0424C78.0424 34.8114 77.9979 34.6075 77.9534 34.4546C77.8199 34.1998 77.5085 34.0469 77.0635 34.0469C76.6186 34.0469 76.3072 34.1998 76.0847 34.4546C75.9957 34.6075 75.9067 34.7605 75.9067 34.9643C75.8622 35.1682 75.8622 35.474 75.8622 35.9327V38.3282H73.949V32.5688ZM80.3561 32.5688H82.2693V38.3792H80.3561V32.5688ZM80.3561 30.1733H82.2693V31.8043H80.3561V30.1733ZM85.0724 34.3527H83.2037C83.2482 33.894 83.2927 33.5372 83.4707 33.3333C83.6931 32.9766 84.0491 32.7217 84.5385 32.5688C85.028 32.4159 85.8288 32.3649 86.9412 32.3649C87.7866 32.3649 88.365 32.4159 88.632 32.4669C88.9434 32.5178 89.2104 32.6707 89.3884 32.9256C89.5663 33.1295 89.6553 33.3333 89.7443 33.6391C89.7888 33.894 89.8333 34.3017 89.8333 34.8114V38.3282H88.009V37.5637H87.9201C87.7866 37.9205 87.5641 38.1244 87.2526 38.2773C87.0747 38.3792 86.8522 38.4302 86.5852 38.4302C86.2738 38.4811 85.8288 38.4811 85.2059 38.4811C84.7165 38.4811 84.316 38.4302 84.0491 38.3792C83.7821 38.3282 83.5597 38.1753 83.3817 38.0224C83.1592 37.7676 83.0257 37.3089 83.0257 36.6973C83.0257 36.0347 83.1592 35.525 83.4707 35.2192C83.6931 34.9643 84.0046 34.8114 84.3605 34.7605C84.7165 34.7095 85.4284 34.6585 86.4518 34.6585C86.8967 34.6585 87.2082 34.7095 87.3861 34.7605C87.5641 34.8114 87.7421 34.9643 87.8756 35.1172H87.9645V34.8114C87.9645 34.3527 87.8756 34.0469 87.7421 33.945C87.6086 33.843 87.2526 33.7921 86.6742 33.7921C86.0068 33.7921 85.5619 33.843 85.4284 33.894C85.1614 33.945 85.0724 34.0979 85.0724 34.3527ZM86.3183 35.8818C85.6954 35.8818 85.2949 35.9327 85.1169 36.0347C84.939 36.1366 84.85 36.2895 84.85 36.4934C84.85 36.7482 84.939 36.9011 85.1169 36.9521C85.2949 37.054 85.6509 37.054 86.1403 37.054C86.8077 37.054 87.2526 37.0031 87.4751 36.9011C87.6976 36.7992 87.8311 36.6463 87.8311 36.3914C87.8311 36.1366 87.7421 35.9837 87.5196 35.9327C87.4751 35.9327 87.0747 35.9327 86.3183 35.8818ZM100.289 30.1733V38.3792H98.5096V37.6147H98.4206C98.2871 37.8695 98.1536 38.0734 97.9757 38.1753C97.6197 38.4302 97.0413 38.5321 96.1959 38.5321C95.5285 38.5321 94.9946 38.4811 94.5941 38.3792C94.2382 38.2773 93.9267 38.1244 93.7043 37.9205C93.4818 37.7166 93.3483 37.4108 93.2593 37.054C93.1703 36.6973 93.1258 36.1366 93.1258 35.423C93.1258 34.9134 93.1258 34.5056 93.1703 34.1998C93.2148 33.894 93.3038 33.6391 93.3928 33.3843C93.5708 32.9256 93.9267 32.6707 94.4607 32.5178C94.8166 32.4159 95.395 32.3649 96.1514 32.3649C96.8188 32.3649 97.3083 32.4159 97.5752 32.5688C97.8422 32.6707 98.1092 32.9256 98.2871 33.3333H98.3761V30.1733H100.289ZM96.8188 33.9959C96.0624 33.9959 95.6175 34.0979 95.395 34.2508C95.1726 34.4037 95.0836 34.8114 95.0836 35.3721C95.0836 35.8308 95.1281 36.1366 95.1726 36.2895C95.217 36.4934 95.3505 36.5953 95.5285 36.6973C95.751 36.7992 96.1514 36.8502 96.7298 36.8502C97.4417 36.8502 97.8867 36.7482 98.1536 36.5953C98.2871 36.4934 98.3316 36.3914 98.3761 36.1876C98.4206 36.0347 98.4651 35.7289 98.4651 35.423C98.4651 35.0153 98.4206 34.7605 98.3761 34.5566C98.3316 34.3527 98.1981 34.2508 98.0202 34.1488C97.7532 34.0469 97.3528 33.9959 96.8188 33.9959ZM105.94 36.4934H107.809C107.764 37.105 107.586 37.5637 107.319 37.8695C107.097 38.1244 106.741 38.2773 106.296 38.3792C105.851 38.4811 105.184 38.5321 104.294 38.5321C103.537 38.5321 103.003 38.4811 102.603 38.4302C102.203 38.3282 101.891 38.2263 101.669 38.0224C101.446 37.8186 101.268 37.5127 101.179 37.156C101.09 36.7992 101.046 36.2385 101.046 35.525C101.046 34.9643 101.046 34.5566 101.09 34.3017C101.135 34.0469 101.179 33.7921 101.268 33.5372C101.491 33.0785 101.847 32.7727 102.381 32.6198C102.826 32.5178 103.537 32.4159 104.472 32.4159C105.317 32.4159 105.896 32.4669 106.252 32.5178C106.874 32.6198 107.275 32.9256 107.497 33.2824C107.72 33.6901 107.853 34.3527 107.853 35.3211C107.853 35.423 107.853 35.6269 107.853 35.9327H102.914C102.914 36.2385 102.914 36.4424 102.959 36.5443C103.003 36.6463 103.048 36.7992 103.137 36.8502C103.315 37.0031 103.76 37.105 104.427 37.105C104.872 37.105 105.184 37.105 105.362 37.054C105.584 37.0031 105.718 36.9521 105.807 36.8502C105.851 36.7992 105.896 36.6463 105.94 36.4934ZM105.985 34.7095C105.985 34.5056 105.985 34.3017 105.94 34.2508C105.94 34.1488 105.896 34.0979 105.807 33.9959C105.629 33.7921 105.184 33.6901 104.472 33.6901C103.849 33.6901 103.404 33.7411 103.226 33.894C103.003 34.0469 102.914 34.3017 102.914 34.7095H105.985Z" fill="#231F20"/>
<path fill-rule="evenodd" clip-rule="evenodd" d="M0 41.5902H7.91991V43.527H2.13571V44.6993H7.60845V46.4832H2.13571V47.8084H7.9644V49.7961H0V41.5902ZM8.18687 43.9857H10.723L11.7019 45.5148H11.7909L12.8142 43.9857H15.2614L13.2147 46.6871L15.4839 49.7961H13.0367L11.8354 47.8084H11.7464L10.5006 49.7961H8.14238L10.3226 46.789L8.18687 43.9857ZM16.4627 42.6606V43.9857H15.4839V45.5148H16.4627V47.1967C16.4627 47.7064 16.4627 48.0122 16.4627 48.1142C16.4627 48.42 16.5072 48.6748 16.5517 48.8787C16.5962 49.0826 16.7297 49.2355 16.8632 49.3884C17.0412 49.5923 17.3081 49.7452 17.5751 49.7961C17.8865 49.8471 18.3315 49.8981 18.9099 49.8981C19.5773 49.8981 20.0667 49.8471 20.3782 49.7452C20.7341 49.6432 20.9566 49.4394 21.1791 49.1845C21.3126 48.9806 21.4016 48.7258 21.4905 48.471C21.535 48.2161 21.5795 47.8084 21.5795 47.2477H19.8443C19.8443 47.5535 19.8443 47.7574 19.8443 47.8084C19.8443 47.8593 19.7998 47.9613 19.7998 48.0122C19.7108 48.2161 19.4883 48.3181 19.1324 48.3181C18.7764 48.3181 18.5539 48.2161 18.465 48.0122C18.4205 47.9103 18.376 47.6045 18.376 47.1458V45.4638H21.3571V43.9348H18.376V42.6096H16.4627V42.6606ZM26.9633 47.9613H28.832C28.7875 48.5729 28.6096 49.0316 28.3426 49.3374C28.1201 49.5923 27.7642 49.7452 27.3192 49.8471C26.8743 49.949 26.2069 50 25.317 50C24.5606 50 24.0267 49.949 23.6262 49.8981C23.2258 49.7961 22.9143 49.6942 22.6919 49.4903C22.4694 49.2864 22.2914 48.9806 22.2024 48.6239C22.1135 48.2671 22.069 47.7064 22.069 46.9929C22.069 46.4322 22.069 46.0245 22.1135 45.7696C22.158 45.5148 22.2024 45.2599 22.2914 45.0051C22.5139 44.5464 22.8699 44.2406 23.4038 44.0877C23.8487 43.9857 24.5606 43.8838 25.495 43.8838C26.3404 43.8838 26.9188 43.9348 27.2747 43.9857C27.8977 44.0877 28.2981 44.3935 28.5206 44.7503C28.743 45.158 28.8765 45.8206 28.8765 46.789C28.8765 46.8909 28.8765 47.0948 28.8765 47.4006H23.9377C23.9377 47.7064 23.9377 47.9103 23.9822 48.0122C24.0267 48.1142 24.0712 48.2671 24.1602 48.3181C24.3382 48.471 24.7831 48.5729 25.4505 48.5729C25.8954 48.5729 26.2069 48.5729 26.3849 48.5219C26.6073 48.471 26.7408 48.42 26.8298 48.3181C26.9188 48.2671 26.9633 48.1142 26.9633 47.9613ZM27.0078 46.1774C27.0078 45.9735 27.0078 45.7696 26.9633 45.7187C26.9633 45.6167 26.9188 45.5658 26.8298 45.4638C26.6518 45.2599 26.2069 45.158 25.495 45.158C24.8721 45.158 24.4271 45.209 24.2492 45.3619C24.0267 45.5148 23.9377 45.7696 23.9377 46.1774H27.0078ZM29.5884 43.9857H31.3682V44.8522H31.4572C31.6351 44.4954 31.8576 44.1896 32.2136 44.0367C32.525 43.8838 33.0145 43.7819 33.6374 43.7819C34.2603 43.7819 34.7052 43.8328 35.0612 43.9348C35.4171 44.0367 35.6841 44.2406 35.9066 44.4954C36.129 44.7503 36.307 45.0561 36.3515 45.4129C36.4405 45.7187 36.4405 46.2793 36.4405 47.0948V49.7452H34.5273V47.0948C34.5273 46.6361 34.5273 46.3303 34.4828 46.1264C34.4383 45.9735 34.3938 45.8206 34.3048 45.7187C34.1268 45.5148 33.6819 45.4129 33.059 45.4129C32.3915 45.4129 31.9911 45.5148 31.7686 45.8206C31.6352 45.9735 31.5907 46.1264 31.5462 46.3303C31.5017 46.5342 31.5017 46.8909 31.5017 47.4516V49.7961H29.5884V43.9857ZM37.1524 47.9613H39.0656C39.0656 48.2161 39.1991 48.369 39.4216 48.471C39.644 48.5729 40.0445 48.6239 40.6229 48.6239C41.2458 48.6239 41.6463 48.5729 41.8687 48.5219C42.0912 48.471 42.1802 48.3181 42.1802 48.1142C42.1802 47.9103 42.0912 47.7574 41.8687 47.7064C41.7798 47.6555 41.2458 47.6555 40.267 47.6555C39.3326 47.6555 38.7987 47.6555 38.5762 47.6045C37.9978 47.5026 37.5973 47.2987 37.3749 46.9419C37.1969 46.6871 37.1524 46.3303 37.1524 45.8716C37.1524 45.0051 37.4194 44.4445 37.9978 44.1896C38.3982 43.9857 39.2881 43.8838 40.6674 43.8838C41.5128 43.8838 42.1357 43.9348 42.5361 43.9857C42.9366 44.0367 43.2481 44.1896 43.426 44.3935C43.5595 44.4954 43.6485 44.6483 43.693 44.8522C43.7375 45.0561 43.782 45.3109 43.8265 45.6677H41.9132C41.8687 45.5148 41.8242 45.4129 41.7798 45.3619C41.6018 45.2599 41.2458 45.209 40.5784 45.209C40 45.209 39.5996 45.2599 39.3771 45.3109C39.1546 45.3619 39.0656 45.5148 39.0656 45.6677C39.0656 45.9225 39.1991 46.0245 39.5106 46.0754C39.733 46.0754 40.6229 46.1264 42.0912 46.1264C42.8031 46.1264 43.337 46.2793 43.6485 46.5342C43.96 46.789 44.1379 47.2477 44.1379 47.9103C44.1379 48.369 44.0934 48.7258 43.96 48.9806C43.8265 49.2355 43.6485 49.4394 43.3815 49.5923C42.9366 49.8471 42.0022 49.949 40.5339 49.949C39.5996 49.949 38.9321 49.8981 38.5317 49.8471C38.1313 49.7961 37.8198 49.5923 37.5973 49.3884C37.2859 49.0316 37.1524 48.5729 37.1524 47.9613ZM46.7631 45.8206H44.8943C44.9388 45.3619 44.9833 45.0051 45.1613 44.8012C45.3838 44.4445 45.7397 44.1896 46.2291 44.0367C46.7186 43.8838 47.5195 43.8328 48.6318 43.8328C49.4772 43.8328 50.0556 43.8838 50.3226 43.9348C50.634 43.9857 50.901 44.1386 51.079 44.3935C51.257 44.5974 51.3459 44.8012 51.4349 45.107C51.4794 45.3619 51.5239 45.7696 51.5239 46.2793V49.7961H49.6997V49.0316H49.6107C49.4772 49.3884 49.2547 49.5923 48.9433 49.7452C48.7653 49.8471 48.5428 49.8981 48.2759 49.8981C47.9644 49.949 47.5195 49.949 46.8965 49.949C46.4071 49.949 46.0067 49.8981 45.7397 49.8471C45.4727 49.7961 45.2503 49.6432 45.0723 49.4903C44.8498 49.2355 44.7164 48.7768 44.7164 48.1651C44.7164 47.5026 44.8498 46.9929 45.1613 46.6871C45.3838 46.4322 45.6952 46.2793 46.0512 46.2283C46.4071 46.1774 47.119 46.1264 48.1424 46.1264C48.5873 46.1264 48.8988 46.1774 49.0768 46.2283C49.2547 46.2793 49.4327 46.4322 49.5662 46.5851H49.6552V46.2793C49.6552 45.8206 49.5662 45.5148 49.4327 45.4129C49.2992 45.3109 48.9433 45.2599 48.3648 45.2599C47.6974 45.2599 47.2525 45.3109 47.119 45.3619C46.8965 45.3619 46.8076 45.5658 46.7631 45.8206ZM48.0534 47.3497C47.4305 47.3497 47.03 47.4006 46.8521 47.5026C46.6741 47.6045 46.5851 47.7574 46.5851 47.9613C46.5851 48.2161 46.6741 48.369 46.8521 48.42C47.03 48.5219 47.386 48.5219 47.8754 48.5219C48.5428 48.5219 48.9878 48.471 49.2102 48.369C49.4327 48.2671 49.5662 48.1142 49.5662 47.8593C49.5662 47.6045 49.4772 47.4516 49.2547 47.4006C49.2102 47.4006 48.7653 47.3497 48.0534 47.3497ZM49.7442 41.1825H50.6785C50.6785 41.7941 50.634 42.2528 50.5006 42.5077C50.3226 42.8644 50.0556 43.0683 49.7442 43.0683C49.4327 43.0683 48.9433 42.9154 48.3204 42.6606C47.6974 42.4057 47.297 42.2528 47.119 42.2528C46.9855 42.2528 46.8966 42.3038 46.8521 42.4057C46.8076 42.5077 46.7631 42.6606 46.7631 42.9154H45.8287C45.8287 42.3038 45.9177 41.896 46.0512 41.5902C46.2736 41.1825 46.5406 41.0296 46.941 41.0296C47.119 41.0296 47.2525 41.0805 47.4305 41.1315C47.6085 41.1825 47.9199 41.3354 48.4538 41.5393C48.9878 41.7941 49.3437 41.896 49.5217 41.896C49.6552 41.896 49.7442 41.7941 49.7887 41.6412C49.7442 41.5393 49.7442 41.3864 49.7442 41.1825ZM55.7953 43.8328C56.6407 43.8328 57.3081 43.8838 57.7086 43.9348C58.1535 44.0367 58.465 44.1386 58.7319 44.3425C58.9989 44.5464 59.1324 44.8012 59.2658 45.158C59.3548 45.5148 59.3993 46.0245 59.3993 46.738C59.3993 47.2987 59.3993 47.7064 59.3548 47.9613C59.3103 48.2161 59.2659 48.471 59.2214 48.6748C59.0434 49.2355 58.6874 49.5413 58.109 49.6942C57.6641 49.7961 56.9077 49.8981 55.8398 49.8981C54.9054 49.8981 54.238 49.8471 53.7931 49.7961C53.3927 49.6942 53.0812 49.5413 52.8142 49.3374C52.5918 49.1335 52.4138 48.8277 52.3248 48.471C52.2358 48.1142 52.1913 47.5026 52.1913 46.6871C52.1913 46.2283 52.1913 45.8206 52.2358 45.6167C52.2803 45.3619 52.3248 45.158 52.4138 44.9541C52.5918 44.5464 52.9477 44.2406 53.3927 44.0877C53.8821 43.9348 54.683 43.8328 55.7953 43.8328ZM55.7953 45.4638C55.1724 45.4638 54.7275 45.5148 54.5495 45.6167C54.3715 45.7187 54.2825 45.8206 54.1936 46.0245C54.1491 46.2283 54.1046 46.5342 54.1046 46.8909C54.1046 47.2477 54.1491 47.5535 54.1936 47.7064C54.238 47.8593 54.3715 48.0122 54.505 48.0632C54.7275 48.2161 55.1724 48.2671 55.7953 48.2671C56.5072 48.2671 56.9522 48.1651 57.1746 48.0122C57.3526 47.8593 57.4861 47.4516 57.4861 46.84C57.4861 46.4322 57.4416 46.1774 57.3971 46.0245C57.3526 45.8716 57.2191 45.7187 57.0412 45.6167C56.8187 45.5658 56.3737 45.4638 55.7953 45.4638ZM67.5417 47.9613H69.4105C69.366 48.5729 69.188 49.0316 68.921 49.3374C68.6985 49.5923 68.3426 49.7452 67.8977 49.8471C67.4527 49.949 66.7853 50 65.8954 50C65.139 50 64.6051 49.949 64.2047 49.8981C63.8042 49.7961 63.4928 49.6942 63.2703 49.4903C63.0478 49.2864 62.8699 48.9806 62.7809 48.6239C62.6919 48.2671 62.6474 47.7064 62.6474 46.9929C62.6474 46.4322 62.6474 46.0245 62.6919 45.7696C62.7364 45.5148 62.7809 45.2599 62.8699 45.0051C63.0923 44.5464 63.4483 44.2406 63.9822 44.0877C64.4271 43.9857 65.139 43.8838 66.0734 43.8838C66.9188 43.8838 67.4972 43.9348 67.8532 43.9857C68.4761 44.0877 68.8765 44.3935 69.099 44.7503C69.3215 45.158 69.4549 45.8206 69.4549 46.789C69.4549 46.8909 69.4549 47.0948 69.4549 47.4006H64.5161C64.5161 47.7064 64.5161 47.9103 64.5606 48.0122C64.6051 48.1142 64.6496 48.2671 64.7386 48.3181C64.9166 48.471 65.3615 48.5729 66.0289 48.5729C66.4739 48.5729 66.7853 48.5729 66.9633 48.5219C67.1858 48.471 67.3192 48.42 67.4082 48.3181C67.4972 48.2671 67.5417 48.1142 67.5417 47.9613ZM67.5862 46.1774C67.5862 45.9735 67.5862 45.7696 67.5417 45.7187C67.5417 45.6167 67.4972 45.5658 67.4082 45.4638C67.2303 45.2599 66.7853 45.158 66.0734 45.158C65.4505 45.158 65.0056 45.209 64.8276 45.3619C64.6051 45.5148 64.5161 45.7696 64.5161 46.1774H67.5862ZM79.733 46.6361H81.9132C81.9132 47.0438 81.9577 47.2987 81.9577 47.4006C81.9577 48.0122 81.8687 48.5219 81.6908 48.8787C81.5128 49.2864 81.1568 49.5413 80.6229 49.6942C80.089 49.8471 79.1991 49.8981 77.9088 49.8981C76.5295 49.8981 75.5951 49.8471 75.0167 49.7961C74.4383 49.7452 73.9933 49.6432 73.7264 49.4394C73.4594 49.2864 73.2814 49.0826 73.1479 48.8277C73.0145 48.5729 72.9255 48.2161 72.881 47.7574C72.8365 47.4006 72.8365 46.738 72.8365 45.7696C72.8365 44.8012 72.8365 44.1386 72.881 43.7309C72.9255 43.3232 72.97 42.9664 73.059 42.7625C73.2369 42.2528 73.6819 41.896 74.2603 41.7431C74.8832 41.5902 76.0845 41.4883 77.9533 41.4883C78.8876 41.4883 79.5551 41.4883 79.9555 41.5393C80.3559 41.5902 80.7119 41.6922 80.9789 41.7941C81.2903 41.947 81.5128 42.2528 81.6463 42.5586C81.7798 42.9154 81.8242 43.4251 81.8242 44.0877C81.8242 44.1386 81.8242 44.2406 81.8242 44.4954H79.644C79.644 44.2406 79.5995 44.0367 79.5995 43.9348C79.5995 43.8328 79.5551 43.7819 79.4661 43.7309C79.3771 43.629 79.1546 43.578 78.8432 43.527C78.4872 43.4761 77.9978 43.4761 77.2859 43.4761C76.6185 43.4761 76.129 43.4761 75.8621 43.527C75.5951 43.578 75.4171 43.629 75.3281 43.7309C75.1947 43.8328 75.1057 44.0367 75.0612 44.3425C75.0167 44.6483 74.9722 45.0561 74.9722 45.7187C74.9722 46.3303 75.0167 46.789 75.0612 47.0438C75.1057 47.2987 75.1947 47.5026 75.3281 47.6045C75.4616 47.7064 75.6396 47.8084 75.9066 47.8084C76.1735 47.8593 76.663 47.8593 77.3304 47.8593C78.1758 47.8593 78.7097 47.8593 78.9766 47.8084C79.2436 47.7574 79.4216 47.7064 79.5551 47.6045C79.6441 47.5026 79.733 47.1458 79.733 46.6361ZM89.4327 49.7961H87.6529V48.9297H87.564C87.4305 49.2864 87.1635 49.5413 86.8521 49.6942C86.5406 49.8471 86.0512 49.949 85.3838 49.949C84.8053 49.949 84.3159 49.8981 84.0044 49.7961C83.6485 49.6942 83.3815 49.4903 83.1591 49.2355C82.9366 48.9806 82.7586 48.6748 82.7141 48.3181C82.6251 48.0122 82.6251 47.4516 82.6251 46.6361V43.9857H84.5384V46.6361C84.5384 47.0438 84.5384 47.3497 84.5829 47.5535C84.6274 47.7574 84.6719 47.8593 84.8053 48.0122C84.8943 48.1142 85.0723 48.2161 85.2058 48.2671C85.3838 48.318 85.6507 48.3181 86.0067 48.3181C86.6296 48.3181 87.03 48.2161 87.2525 48.0122C87.386 47.8593 87.475 47.7064 87.5195 47.5026C87.564 47.2987 87.564 46.8909 87.564 46.3813V44.0367H89.4772V49.7961H89.4327ZM90.3226 41.5902H92.2358V49.7961H90.3226V41.5902ZM93.6151 42.6606H95.5284V43.9857H98.5095V45.5148H95.5284V47.1967C95.5284 47.6555 95.5729 47.9613 95.6173 48.0632C95.7063 48.2671 95.9288 48.369 96.2848 48.369C96.6407 48.369 96.8632 48.2671 96.9522 48.0632C96.9967 48.0122 96.9967 47.9103 96.9967 47.8593C96.9967 47.8084 96.9967 47.6045 96.9967 47.2987H98.7319C98.7319 47.8593 98.6874 48.2671 98.6429 48.5219C98.5984 48.7768 98.5095 48.9806 98.3315 49.2355C98.1535 49.4903 97.8865 49.6942 97.5306 49.7961C97.2191 49.8981 96.6852 49.949 96.0623 49.949C95.4394 49.949 94.9944 49.8981 94.7275 49.8471C94.416 49.7961 94.1936 49.6432 94.0156 49.4394C93.8821 49.2864 93.7931 49.1335 93.7041 48.9297C93.6596 48.7258 93.6151 48.5219 93.6151 48.1651C93.6151 48.0632 93.6151 47.7574 93.6151 47.2477V45.5658H92.6363V44.0367H93.6151V42.6606ZM106.073 49.7961H104.294V48.9297H104.205C104.071 49.2864 103.804 49.5413 103.493 49.6942C103.181 49.8471 102.692 49.949 102.024 49.949C101.446 49.949 100.957 49.8981 100.645 49.7961C100.289 49.6942 100.022 49.4903 99.7998 49.2355C99.5773 48.9806 99.3993 48.6748 99.3548 48.3181C99.2658 48.0122 99.2659 47.4516 99.2659 46.6361V43.9857H101.179V46.6361C101.179 47.0438 101.179 47.3497 101.224 47.5535C101.268 47.7574 101.313 47.8593 101.446 48.0122C101.535 48.1142 101.713 48.2161 101.846 48.2671C102.024 48.318 102.291 48.3181 102.647 48.3181C103.27 48.3181 103.671 48.2161 103.893 48.0122C104.027 47.8593 104.116 47.7064 104.16 47.5026C104.205 47.2987 104.205 46.8909 104.205 46.3813V44.0367H106.118V49.7961H106.073ZM106.963 43.9857H108.743V44.8522H108.832C109.01 44.4954 109.232 44.2406 109.544 44.0877C109.855 43.9348 110.256 43.8328 110.79 43.8328C111.546 43.8328 112.08 43.9857 112.392 44.3425C112.703 44.6993 112.836 45.3109 112.836 46.1774C112.836 46.2283 112.836 46.3813 112.836 46.5851H111.057C111.057 46.2283 111.012 46.0245 110.968 45.8716C110.834 45.6167 110.523 45.4638 110.078 45.4638C109.633 45.4638 109.321 45.6167 109.099 45.8716C109.01 46.0245 108.921 46.1774 108.921 46.3813C108.877 46.5851 108.877 46.8909 108.877 47.3497V49.7452H106.963V43.9857ZM115.239 45.8206H113.37C113.415 45.3619 113.459 45.0051 113.637 44.8012C113.86 44.4445 114.216 44.1896 114.705 44.0367C115.195 43.8838 115.996 43.8328 117.108 43.8328C117.953 43.8328 118.532 43.8838 118.799 43.9348C119.11 43.9857 119.377 44.1386 119.555 44.3935C119.733 44.5974 119.822 44.8012 119.911 45.107C119.956 45.3619 120 45.7696 120 46.2793V49.7961H118.176V49.0316H118.087C117.953 49.3884 117.731 49.5923 117.419 49.7452C117.241 49.8471 117.019 49.8981 116.752 49.8981C116.44 49.949 115.996 49.949 115.373 49.949C114.883 49.949 114.483 49.8981 114.216 49.8471C113.949 49.7961 113.726 49.6432 113.548 49.4903C113.326 49.2355 113.192 48.7768 113.192 48.1651C113.192 47.5026 113.326 46.9929 113.637 46.6871C113.86 46.4322 114.171 46.2793 114.527 46.2283C114.883 46.1774 115.595 46.1264 116.618 46.1264C117.063 46.1264 117.375 46.1774 117.553 46.2283C117.731 46.2793 117.909 46.4322 118.042 46.5851H118.131V46.2793C118.131 45.8206 118.042 45.5148 117.909 45.4129C117.775 45.3109 117.419 45.2599 116.841 45.2599C116.174 45.2599 115.729 45.3109 115.595 45.3619C115.373 45.3619 115.284 45.5658 115.239 45.8206ZM116.529 47.3497C115.907 47.3497 115.506 47.4006 115.328 47.5026C115.15 47.6045 115.061 47.7574 115.061 47.9613C115.061 48.2161 115.15 48.369 115.328 48.42C115.506 48.5219 115.862 48.5219 116.352 48.5219C117.019 48.5219 117.464 48.471 117.686 48.369C117.909 48.2671 118.042 48.1142 118.042 47.8593C118.042 47.6045 117.953 47.4516 117.731 47.4006C117.686 47.4006 117.241 47.3497 116.529 47.3497Z" fill="#231F20"/>
</svg>
