<svg width="512" height="512" xmlns="http://www.w3.org/2000/svg">

 <g>
  <title>background</title>
  <rect fill="none" id="canvas_background" height="402" width="582" y="-1" x="-1"/>
 </g>
 <g>
  <title>Layer 1</title>
  <path fill="#ffffff" id="svg_1" d="m322.7,128.4l100.3,105c6,5.8 9,13.7 9,22.4c0,8.7 -3,16.5 -9,22.4l-100.3,105.4c-11.9,12.5 -31.3,12.5 -43.2,0c-11.9,-12.5 -11.9,-32.7 0,-45.2l48.2,-50.4l-217,0c-17,0 -30.7,-14.3 -30.7,-32c0,-17.7 13.7,-32 30.6,-32l217,0l-48.2,-50.4c-11.9,-12.5 -11.9,-32.7 0,-45.2c12,-12.5 31.3,-12.5 43.3,0z"/>
 </g>
</svg>