<svg width="20" height="24" viewBox="0 0 20 24" fill="none" xmlns="http://www.w3.org/2000/svg">
<path d="M10 0C5.11111 0 0 3.54783 0 9.3913C0 14.9217 8.88889 23.3739 9.22222 23.687C9.44444 23.8957 9.66667 24 10 24C10.3333 24 10.5556 23.8957 10.7778 23.687C11.1111 23.3739 20 14.9217 20 9.3913C20 3.54783 14.8889 0 10 0ZM10 12.5217C8.11111 12.5217 6.66667 11.1652 6.66667 9.3913C6.66667 7.61739 8.11111 6.26087 10 6.26087C11.8889 6.26087 13.3333 7.61739 13.3333 9.3913C13.3333 11.1652 11.8889 12.5217 10 12.5217Z" fill="white"/>
</svg>
