<svg width="28" height="28" viewBox="0 0 28 28" fill="none" xmlns="http://www.w3.org/2000/svg">
<path d="M20.3434 18.138L23.0026 15.4787C23.4786 15.0028 24.2503 15.0028 24.7262 15.4787C25.2022 15.9547 25.2022 16.7263 24.7262 17.2023L19.9864 21.9421C19.5104 22.4181 18.7388 22.4181 18.2628 21.9421L13.523 17.2023C13.047 16.7263 13.047 15.9547 13.523 15.4787C13.9989 15.0028 14.7706 15.0028 15.2466 15.4787L17.9059 18.138L17.9059 6.86084C17.9059 6.18775 18.4515 5.64209 19.1246 5.64209C19.7977 5.64209 20.3434 6.18775 20.3434 6.86084V18.138ZM8.42621 9.80317L5.76692 12.4625C5.29097 12.9384 4.5193 12.9384 4.04334 12.4625C3.56739 11.9865 3.56739 11.2148 4.04334 10.7389L8.78317 5.99906C9.25912 5.52311 10.0308 5.52311 10.5067 5.99906L15.2466 10.7389C15.7225 11.2148 15.7225 11.9865 15.2466 12.4625C14.7706 12.9384 13.9989 12.9384 13.523 12.4625L10.8637 9.80317L10.8637 21.0803C10.8637 21.7534 10.3181 22.2991 9.64496 22.2991C8.97186 22.2991 8.42621 21.7534 8.42621 21.0803L8.42621 9.80317Z" fill="white"/>
</svg>
